<?xml version="1.0" encoding="UTF-8"?>
<svg width="1190px" height="629px" viewBox="0 0 1190 629" version="1.1" xmlns="http://www.w3.org/2000/svg"
    xmlns:xlink="http://www.w3.org/1999/xlink">
    <g id="Page-1" stroke="none" stroke-width="1" fill="none" fill-rule="evenodd">
        <g id="Group" transform="translate(0.000000, 85.000000)" fill="#000000" fill-rule="nonzero">
            <polygon id="Path" points="294 396 0 396 0 458 294 458"></polygon>
            <path
                d="M286.620222,95.3534019 C275.441406,37.1580106 228.938362,0 148.453652,0 C65.7315386,0 9.39025678,40.7382528 9.6145061,104.307895 C9.39025678,154.444761 40.2449437,187.573619 106.198316,201.2265 L164.774929,213.53612 C196.297532,220.47529 211.052775,233.234103 211.052775,252.70749 C211.052775,276.210658 185.566525,293.892455 147.111089,293.892455 C109.998216,293.892455 85.8528025,277.777651 78.9221267,246.886983 L0,254.49908 C10.0631773,317.620219 63.0474494,355 147.335425,355 C233.187796,355 293.775664,310.456452 294,245.322582 C293.775664,196.300924 262.250473,166.308643 197.416622,152.207433 L138.839145,139.672353 C103.962725,131.838252 90.1013736,119.752364 90.3231207,99.8297844 C90.1013736,76.551386 115.812822,60.4362362 149.570153,60.4362362 C186.907362,60.4362362 206.582457,80.8054179 212.842283,103.4121 L286.620222,95.3534019 Z"
                id="Path"></path>
        </g>
        <g id="Group" transform="translate(829.000000, 97.000000)" fill="#000000" fill-rule="nonzero">
            <polygon id="Path" points="63.1 31.1 33.8 60.4 5.5 32.1 34.8 2.8"></polygon>
            <polygon id="Path" points="65.3 83.7 42.1 106.8 19.8 84.4 42.9 61.3"></polygon>
            <polygon id="Path" points="150 47.6 104.2 93.6 58.4 47.7 104.2 1.8"></polygon>
            <polygon id="Path" points="98.3 144.8 56.9 182.4 14.9 143.9 55.7 106.2"></polygon>
            <polygon id="Path" points="57.2 200.4 29.2 225.3 0.7 199.6 28.3 174.7"></polygon>
            <polygon id="Path" points="107.1 191.4 85.3 211.2 64.7 190.8 84.6 171"></polygon>
            <polygon id="Path" points="57.2 318.9 29.1 343.9 0.7 318.3 28.4 293.3"></polygon>
            <polygon id="Path" points="105.4 308.9 83.5 328.7 63 308.4 82.9 288.5"></polygon>
            <polygon id="Path" points="129.8 352.1 107.8 375.2 85.4 352.7 108.4 329.7"></polygon>
            <polygon id="Path" points="95.3 381 51.3 425 8.4 382.2 52.4 338.1"></polygon>
            <polygon id="Path" points="98.3 258.7 56.3 297 14.3 258.6 55.8 220.3"></polygon>
            <path
                d="M267.6,397.7 C252.6,395.6 238.7,392.9 223.8,387.9 C233.2,368.4 233.8,364.1 238.3,348.1 C252.8,352 262.3,352.1 279.6,352.4 C277.4,368.5 272.9,384.1 267.6,397.7"
                id="Path"></path>
            <path
                d="M231.4,347.6 C221.8,344.6 212.5,340.9 203.6,336.2 C206.7,326.7 208.6,317.2 209.3,307.8 C217.8,312 226.5,315.2 235.3,317.3 C235.4,327.3 233.9,337.4 231.4,347.6"
                id="Path"></path>
            <path
                d="M324.2,323.2 C304.3,332 283.2,336.2 260.7,335.5 C261.6,315.6 258.2,297.2 248.7,280 C268.2,278.1 285.4,271.6 301.3,261.2 C313.1,279.6 320.8,300.2 324.2,323.2"
                id="Path"></path>
            <path
                d="M273,261.6 C267.5,253.5 261.3,246.1 254.5,239.4 C263.2,234.8 271.3,229.7 278.5,224 C286,231.1 292.9,238.9 299.2,247.2 C291.1,252.9 282.4,257.8 273,261.6"
                id="Path"></path>
            <path
                d="M307.1,217 C292.5,202.5 277,190.6 259.8,183.5 C272.5,167.2 281.8,150.8 287,134.2 C306.9,139.7 326,150.7 344.7,165.6 C335.5,183.8 323,201 307.1,217"
                id="Path"></path>
            <path
                d="M360.9,245.3 C349.3,256.4 337.6,266.1 325.9,273.3 C320.7,260.9 313.2,248.8 304,236.8 C315,228.5 325,219.1 334.3,209 C344.6,220.6 353.7,232.7 360.9,245.3"
                id="Path"></path>
            <path
                d="M264.5,153.1 C256,150.9 246.8,149.7 236.7,150 C240.5,142.4 243,133.5 244.7,124 C255.5,123.1 265.5,123.7 274.9,125.4 C272.5,135.5 268.9,144.7 264.5,153.1"
                id="Path"></path>
            <path
                d="M315.6,131.5 C301.9,125 288.3,120.4 274.9,118.6 C277.3,106 277.7,92.2 275.8,77.1 C291.3,77.3 306.8,80.5 322.3,85.8 C322.2,101.2 320.1,116.4 315.6,131.5"
                id="Path"></path>
            <path
                d="M263.8,99.2 C243.9,100.4 225.3,105.2 208.1,114 C204.4,95.4 197.6,77.6 187.7,60.7 C205.4,50 225.7,42.2 248.3,37 C257.5,57.4 262.8,78.2 263.8,99.2"
                id="Path"></path>
            <path
                d="M185,89.2 C176.5,94.4 168.4,100.1 160.7,106.5 C156.7,98.2 151.7,89.7 146,81.1 C153.6,74.5 161.9,68.2 171,62.1 C176.8,71.7 181.4,80.6 185,89.2"
                id="Path"></path>
            <path
                d="M206.3,36.5 C193.2,42.4 180.9,49.2 169.5,57.1 C161.8,45.4 153.3,34.7 144.3,24.8 C156.1,15.8 168.4,7.7 181.5,0.7 C190.6,11.7 198.8,23.7 206.3,36.5"
                id="Path"></path>
            <path
                d="M223.1,359.4 C216.3,376.5 206.3,399.8 192.6,416.8 C175.4,409 157,396 140.4,382.3 C153.8,366 165,349.2 173.2,331.6 C188.3,345.4 204.5,351.1 223.1,359.4"
                id="Path"></path>
            <path
                d="M149.2,404.4 C140.7,415.7 128.8,424.6 116.9,433.6 L89.7,406 L120.2,375.4 C127.8,386.4 137.6,395.9 149.2,404.4"
                id="Path"></path>
        </g>
        <line x1="561" y1="619" x2="561" y2="10" id="Line" stroke="#000000" stroke-width="20" fill="#000000"
            stroke-linecap="square"></line>
    </g>
</svg>